<?xml version="1.0" encoding="UTF-8" standalone="no"?>
<!-- Created with Inkscape (http://www.inkscape.org/) -->

<svg
   xmlns:dc="http://purl.org/dc/elements/1.1/"
   xmlns:cc="http://creativecommons.org/ns#"
   xmlns:rdf="http://www.w3.org/1999/02/22-rdf-syntax-ns#"
   xmlns:svg="http://www.w3.org/2000/svg"
   xmlns="http://www.w3.org/2000/svg"
   xmlns:sodipodi="http://sodipodi.sourceforge.net/DTD/sodipodi-0.dtd"
   xmlns:inkscape="http://www.inkscape.org/namespaces/inkscape"
   width="120mm"
   height="35mm"
   viewBox="0 0 120 34.999999"
   version="1.1"
   id="svg4697"
   inkscape:version="0.92.1 r15371"
   sodipodi:docname="icons_multiplat.svg">
  <defs
     id="defs4691" />
  <sodipodi:namedview
     id="base"
     pagecolor="#ffffff"
     bordercolor="#666666"
     borderopacity="1.0"
     inkscape:pageopacity="0.0"
     inkscape:pageshadow="2"
     inkscape:zoom="0.7"
     inkscape:cx="255.01706"
     inkscape:cy="75.357453"
     inkscape:document-units="mm"
     inkscape:current-layer="layer1"
     showgrid="false"
     units="mm"
     inkscape:window-width="1440"
     inkscape:window-height="837"
     inkscape:window-x="-8"
     inkscape:window-y="-8"
     inkscape:window-maximized="1" />
  <metadata
     id="metadata4694">
    <rdf:RDF>
      <cc:Work
         rdf:about="">
        <dc:format>image/svg+xml</dc:format>
        <dc:type
           rdf:resource="http://purl.org/dc/dcmitype/StillImage" />
        <dc:title></dc:title>
      </cc:Work>
    </rdf:RDF>
  </metadata>
  <g
     inkscape:label="Capa 1"
     inkscape:groupmode="layer"
     id="layer1"
     transform="translate(0,-262)">
    <circle
       style="opacity:1;vector-effect:none;fill:#363c48;fill-opacity:0.8627451;stroke:none;stroke-width:0.26458332;stroke-linecap:butt;stroke-linejoin:miter;stroke-miterlimit:4;stroke-dasharray:none;stroke-dashoffset:0;stroke-opacity:1"
       id="path186-8"
       cx="101.59782"
       cy="279.81897"
       r="16.971617"
       inkscape:export-xdpi="92.216759"
       inkscape:export-ydpi="92.216759" />
    <circle
       style="opacity:1;vector-effect:none;fill:#94c83c;fill-opacity:0.8627451;stroke:none;stroke-width:0.26458332;stroke-linecap:butt;stroke-linejoin:miter;stroke-miterlimit:4;stroke-dasharray:none;stroke-dashoffset:0;stroke-opacity:1"
       id="path186-8-6"
       cx="73.703148"
       cy="279.81897"
       r="16.971617"
       inkscape:export-xdpi="92.216759"
       inkscape:export-ydpi="92.216759" />
    <circle
       style="opacity:1;vector-effect:none;fill:#aeaeae;fill-opacity:0.8627451;stroke:none;stroke-width:0.26458332;stroke-linecap:butt;stroke-linejoin:miter;stroke-miterlimit:4;stroke-dasharray:none;stroke-dashoffset:0;stroke-opacity:1"
       id="path186-8-6-7"
       cx="46.073071"
       cy="279.81897"
       r="16.971617"
       inkscape:export-xdpi="92.216759"
       inkscape:export-ydpi="92.216759" />
    <circle
       style="opacity:1;vector-effect:none;fill:#0093d4;fill-opacity:0.8627451;stroke:none;stroke-width:0.26458332;stroke-linecap:butt;stroke-linejoin:miter;stroke-miterlimit:4;stroke-dasharray:none;stroke-dashoffset:0;stroke-opacity:1"
       id="path186-8-6-7-1"
       cx="18.480827"
       cy="279.81897"
       r="16.971617"
       inkscape:export-xdpi="92.216759"
       inkscape:export-ydpi="92.216759" />
    <path
       id="path903"
       d="m 46.834063,271.31175 c 1.185108,-1.56201 2.832695,-1.56963 2.832695,-1.56963 0,0 0.245076,1.46856 -0.93227,2.88325 -1.257112,1.51057 -2.685994,1.26339 -2.685994,1.26339 0,0 -0.268309,-1.18802 0.785569,-2.57701 z m -0.634839,3.60573 c 0.609682,0 1.741218,-0.83807 3.214071,-0.83807 2.535264,0 3.532635,1.804 3.532635,1.804 0,0 -1.950678,0.99734 -1.950678,3.41734 0,2.72996 2.430013,3.6708 2.430013,3.6708 0,0 -1.69867,4.78112 -3.993094,4.78112 -1.053815,0 -1.873105,-0.71016 -2.983455,-0.71016 -1.131539,0 -2.254425,0.73665 -2.985768,0.73665 -2.095158,6e-5 -4.742071,-4.53534 -4.742071,-8.18103 0,-3.58687 2.240439,-5.46847 4.341878,-5.46847 1.366124,0 2.426251,0.78782 3.136469,0.78782 z"
       inkscape:connector-curvature="0"
       style="fill:#ffffff;stroke-width:0.02963071" />
    <path
       id="path914"
       d="m 10.754822,274.26353 6.314875,-0.85996 0.0024,6.09118 -6.311857,0.0359 -0.0056,-5.26709 z m 6.311857,5.93297 0.0048,6.09649 -6.311794,-0.8678 -2.65e-4,-5.26956 6.307275,0.0409 z m 0.765484,-6.90551 8.372919,-1.22198 v 7.34824 l -8.372919,0.0664 v -6.19259 z m 8.37485,6.96285 -0.0019,7.31511 -8.37291,-1.18174 -0.01174,-6.14707 z"
       inkscape:connector-curvature="0"
       style="fill:#ffffff;stroke-width:0.06036012" />
    <path
       style="fill:#ffffff;stroke-width:0.07986483"
       inkscape:connector-curvature="0"
       d="m 71.137571,281.77689 c 0.62814,0 1.137357,0.50921 1.137357,1.13735 v 4.87894 c 0,0.62814 -0.509217,1.13728 -1.137357,1.13728 -0.628057,0 -1.137274,-0.50914 -1.137274,-1.13728 v -4.87894 c 0,-0.62806 0.509217,-1.13727 1.137274,-1.13727 z"
       id="path925" />
    <path
       style="fill:#ffffff;stroke-width:0.07986483"
       inkscape:connector-curvature="0"
       d="m 68.541085,275.91105 c -0.0037,0.0432 -0.007,0.0867 -0.007,0.13082 v 7.39205 c 0,0.79498 0.629256,1.43541 1.410412,1.43541 h 7.517199 c 0.781238,0 1.410494,-0.64051 1.410494,-1.43541 v -7.39205 c 0,-0.0441 -0.0016,-0.0879 -0.0053,-0.13082 z"
       id="path927" />
    <path
       style="fill:#ffffff;stroke-width:0.07986483"
       inkscape:connector-curvature="0"
       d="m 76.268728,281.77689 c 0.628137,0 1.137357,0.50921 1.137357,1.13735 v 4.87894 c 0,0.62814 -0.50922,1.13728 -1.137357,1.13728 -0.628057,0 -1.137277,-0.50914 -1.137277,-1.13728 v -4.87894 c 0,-0.62806 0.50922,-1.13727 1.137277,-1.13727 z m -9.562057,-5.20799 c 0.628057,0 1.137274,0.50921 1.137274,1.13736 v 4.87893 c 0,0.62814 -0.509217,1.13736 -1.137274,1.13736 -0.628137,0 -1.137354,-0.50922 -1.137354,-1.13727 v -4.87895 c -7.9e-5,-0.62813 0.509138,-1.13743 1.137354,-1.13743 z m 13.993037,0 c 0.628057,0 1.137275,0.50921 1.137275,1.13736 v 4.87893 c 0,0.62814 -0.509218,1.13736 -1.137275,1.13736 -0.628137,0 -1.137354,-0.50922 -1.137354,-1.13727 v -4.87895 c 0,-0.62813 0.509217,-1.13743 1.137354,-1.13743 z m -12.125396,-1.14342 c 0.03162,-2.27056 2.013392,-4.13221 4.557246,-4.37756 h 1.143024 c 2.544014,0.24542 4.525621,2.10716 4.557247,4.37756 z"
       id="path929" />
    <path
       style="fill:#ff0000;stroke:#ffffff;stroke-width:0.69818687;stroke-linecap:round;stroke-linejoin:round;stroke-miterlimit:4;stroke-dasharray:none"
       inkscape:connector-curvature="0"
       d="m 69.499049,270.43184 1.047043,1.81361 m 7.214791,-1.81361 -1.047112,1.81361"
       id="path931" />
    <path
       style="fill:#94c93b;fill-opacity:0.8627451;stroke-width:0.07986483"
       inkscape:connector-curvature="0"
       d="m 72.175256,273.39068 c 0.0011,0.31738 -0.261717,0.57543 -0.586766,0.5763 -0.324892,7.7e-4 -0.589084,-0.25573 -0.590042,-0.57311 v -0.003 c -7.94e-4,-0.31746 0.261797,-0.57542 0.586766,-0.5763 0.32489,-7.7e-4 0.589085,0.25556 0.590042,0.57311 z m 4.392245,0 c 0.0011,0.31738 -0.261718,0.57543 -0.586766,0.5763 -0.32489,7.7e-4 -0.589082,-0.25573 -0.59004,-0.57311 v -0.003 c -7.93e-4,-0.31746 0.261795,-0.57542 0.586767,-0.5763 0.32489,-7.7e-4 0.589081,0.25556 0.590039,0.57311 z"
       id="path933" />
    <g
       id="g981"
       transform="matrix(0.00275042,0,0,0.00275042,92.959963,275.21697)"
       style="fill:#ffffff">
      <path
         id="path964"
         d="M 4079.8,272.2 V 819 h 686 v 196 h -686 v 1614.4 c 0,165.1 26.6,291.4 80,379.1 53.3,87.7 145.2,131.5 276,131.5 61.9,0 115.2,-3.4 159.9,-10.3 44.7,-6.8 82.5,-15.5 113.5,-25.8 l 25.8,185.7 c -82.5,37.8 -192.6,56.8 -330.1,56.8 -113.5,0 -207.2,-19 -281.1,-56.8 -74,-37.8 -132.4,-90.2 -175.4,-157.3 -43,-67.1 -73.1,-147.8 -90.3,-242.4 -17.3,-94.5 -25.8,-196.8 -25.8,-306.9 V 1015 H 3424.8 V 819 h 407.5 V 365 Z M 5163,818.9 5730.4,2356 c 48.1,120.4 91.1,233.9 128.9,340.4 37.8,106.6 73.9,211.5 108.3,314.6 h 10.3 c 34.3,-99.7 71.3,-203.8 110.9,-312.1 39.5,-108.3 83.4,-222.6 131.5,-343 L 6792.8,818.8 h 257.9 L 6065.5,3294.6 H 5854 L 4905.1,818.9 Z"
         class="st0"
         inkscape:connector-curvature="0"
         style="fill:#ffffff" />
      <g
         id="g968"
         style="fill:#ffffff">
        <path
           id="path966"
           d="M 1505.2,291.2 C 1725.1,1.4 2030.8,0 2030.8,0 c 0,0 45.5,272.5 -173,534.9 -233.2,280.3 -498.3,234.4 -498.3,234.4 0,0 -49.8,-220.4 145.7,-478.1 z m -117.8,669 c 113.1,0 323,-155.5 596.3,-155.5 470.4,0 655.4,334.7 655.4,334.7 0,0 -361.9,185 -361.9,634 0,506.5 450.8,681 450.8,681 0,0 -315.1,887 -740.8,887 -195.5,0 -347.5,-131.8 -553.5,-131.8 -209.9,0 -418.3,136.7 -553.9,136.7 C 491.1,3346.4 0,2504.9 0,1828.6 0,1163.1 415.7,814 805.5,814 c 253.5,0 450.2,146.2 581.9,146.2 z"
           class="st0"
           inkscape:connector-curvature="0"
           style="fill:#ffffff" />
      </g>
    </g>
  </g>
</svg>
